<mxfile host="app.diagrams.net" agent="Mozilla/5.0 (Windows NT 10.0; Win64; x64) AppleWebKit/537.36 (KHTML, like Gecko) Chrome/125.0.0.0 Safari/537.36" version="24.8.3">
  <diagram name="第 1 页" id="jCd00TFsYmUW49AkTwcX">
    <mxGraphModel dx="1434" dy="1915" grid="1" gridSize="10" guides="1" tooltips="1" connect="1" arrows="1" fold="1" page="1" pageScale="1" pageWidth="1654" pageHeight="1169" math="0" shadow="0">
      <root>
        <mxCell id="0" />
        <mxCell id="1" parent="0" />
        <mxCell id="-3GkACIyukzAmPRYfmAO-1" value="&lt;div style=&quot;font-size: 16px;&quot;&gt;&lt;font style=&quot;font-size: 16px;&quot;&gt;1、动作表结构&lt;/font&gt;&lt;/div&gt;&lt;font style=&quot;font-size: 16px;&quot;&gt;2、动作初始化&lt;/font&gt;&lt;div style=&quot;font-size: 16px;&quot;&gt;&lt;font style=&quot;font-size: 16px;&quot;&gt;3、动作数据更新&lt;/font&gt;&lt;/div&gt;&lt;div style=&quot;font-size: 16px;&quot;&gt;&lt;font style=&quot;font-size: 16px;&quot;&gt;&lt;br&gt;&lt;/font&gt;&lt;/div&gt;&lt;div style=&quot;font-size: 16px;&quot;&gt;&lt;font style=&quot;font-size: 16px;&quot;&gt;4、精准对接&lt;/font&gt;&lt;/div&gt;&lt;div style=&quot;font-size: 16px;&quot;&gt;&lt;font style=&quot;font-size: 16px;&quot;&gt;5、转阶段收集覆盖率&lt;/font&gt;&lt;/div&gt;&lt;div style=&quot;font-size: 16px;&quot;&gt;&lt;font style=&quot;font-size: 16px;&quot;&gt;6、app覆盖率对接&lt;/font&gt;&lt;/div&gt;" style="text;html=1;align=left;verticalAlign=top;whiteSpace=wrap;rounded=0;" parent="1" vertex="1">
          <mxGeometry x="100" y="80" width="210" height="190" as="geometry" />
        </mxCell>
        <mxCell id="-3GkACIyukzAmPRYfmAO-2" value="&lt;h1 style=&quot;margin-top: 0px;&quot;&gt;精准对接&lt;/h1&gt;&lt;p style=&quot;font-size: 16px;&quot;&gt;&lt;font style=&quot;font-size: 16px;&quot;&gt;代码入口：CoverageAction#moduleCreateMessage&lt;/font&gt;&lt;/p&gt;&lt;p style=&quot;font-size: 16px;&quot;&gt;&lt;font style=&quot;font-size: 16px;&quot;&gt;消费topic：checkOnData&lt;/font&gt;&lt;/p&gt;" style="text;html=1;whiteSpace=wrap;overflow=hidden;rounded=0;" parent="1" vertex="1">
          <mxGeometry x="860" y="-190" width="400" height="120" as="geometry" />
        </mxCell>
        <mxCell id="-3GkACIyukzAmPRYfmAO-3" value="&lt;h1 style=&quot;margin-top: 0px;&quot;&gt;转阶段收集覆盖率&lt;/h1&gt;&lt;p style=&quot;font-size: 16px;&quot;&gt;&lt;font style=&quot;font-size: 16px;&quot;&gt;代码入口：ActionPipeMsgObserver#consumerMessage&lt;/font&gt;&lt;span style=&quot;color: rgba(0, 0, 0, 0); font-family: monospace; font-size: 0px; text-wrap: nowrap; background-color: initial;&quot;&gt;%3CmxGraphModel%3E%3Croot%3E%3CmxCell%20id%3D%220%22%2F%3E%3CmxCell%20id%3D%221%22%20parent%3D%220%22%2F%3E%3CmxCell%20id%3D%222%22%20value%3D%22%26lt%3Bh1%20style%3D%26quot%3Bmargin-top%3A%200px%3B%26quot%3B%26gt%3B%E7%B2%BE%E5%87%86%E5%AF%B9%E6%8E%A5%26lt%3B%2Fh1%26gt%3B%26lt%3Bp%20style%3D%26quot%3Bfont-size%3A%2016px%3B%26quot%3B%26gt%3B%26lt%3Bfont%20style%3D%26quot%3Bfont-size%3A%2016px%3B%26quot%3B%26gt%3B%E4%BB%A3%E7%A0%81%E5%85%A5%E5%8F%A3%EF%BC%9ACoverageAction%23moduleCreateMessage%26lt%3B%2Ffont%26gt%3B%26lt%3B%2Fp%26gt%3B%26lt%3Bp%20style%3D%26quot%3Bfont-size%3A%2016px%3B%26quot%3B%26gt%3B%26lt%3Bfont%20style%3D%26quot%3Bfont-size%3A%2016px%3B%26quot%3B%26gt%3B%E6%B6%88%E8%B4%B9topic%EF%BC%9AcheckOnData%26lt%3B%2Ffont%26gt%3B%26lt%3B%2Fp%26gt%3B%22%20style%3D%22text%3Bhtml%3D1%3BwhiteSpace%3Dwrap%3Boverflow%3Dhidden%3Brounded%3D0%3B%22%20vertex%3D%221%22%20parent%3D%221%22%3E%3CmxGeometry%20x%3D%22400%22%20y%3D%2280%22%20width%3D%22390%22%20height%3D%22140%22%20as%3D%22geometry%22%2F%3E%3C%2FmxCell%3E%3C%2Froot%3E%3C%2FmxGraphModel%3E&lt;/span&gt;&lt;/p&gt;&lt;p style=&quot;font-size: 16px;&quot;&gt;&lt;font style=&quot;font-size: 16px;&quot;&gt;入口逻辑：实现vpaas打包消息的监听者&lt;/font&gt;&lt;/p&gt;" style="text;html=1;whiteSpace=wrap;overflow=hidden;rounded=0;" parent="1" vertex="1">
          <mxGeometry x="860" y="540" width="450" height="120" as="geometry" />
        </mxCell>
        <mxCell id="-3GkACIyukzAmPRYfmAO-4" value="&lt;h1 style=&quot;margin-top: 0px;&quot;&gt;APP覆盖率对接&lt;/h1&gt;&lt;p style=&quot;font-size: 16px;&quot;&gt;&lt;font style=&quot;font-size: 16px;&quot;&gt;代码入口：CoverageActionController#mobileCoverage&lt;/font&gt;&lt;/p&gt;&lt;p style=&quot;font-size: 16px;&quot;&gt;&lt;font style=&quot;font-size: 16px;&quot;&gt;入口逻辑：APP同步覆盖率到覆盖率系统，然后覆盖率系统回调该接口&lt;/font&gt;&lt;/p&gt;" style="text;html=1;whiteSpace=wrap;overflow=hidden;rounded=0;" parent="1" vertex="1">
          <mxGeometry x="860" y="720" width="540" height="130" as="geometry" />
        </mxCell>
        <mxCell id="-3GkACIyukzAmPRYfmAO-6" value="&lt;h1 style=&quot;margin-top: 0px;&quot;&gt;动作初始化&lt;/h1&gt;&lt;p style=&quot;font-size: 16px;&quot;&gt;&lt;font style=&quot;font-size: 16px;&quot;&gt;代码入口：ActionUseInitObserver#initFlow&lt;/font&gt;&lt;span style=&quot;color: rgba(0, 0, 0, 0); font-family: monospace; font-size: 0px; text-wrap: nowrap; background-color: initial;&quot;&gt;%3CmxGraphModel%3E%3Croot%3E%3CmxCell%20id%3D%220%22%2F%3E%3CmxCell%20id%3D%221%22%20parent%3D%220%22%2F%3E%3CmxCell%20id%3D%222%22%20value%3D%22%26lt%3Bh1%20style%3D%26quot%3Bmargin-top%3A%200px%3B%26quot%3B%26gt%3B%E8%BD%AC%E9%98%B6%E6%AE%B5%E6%94%B6%E9%9B%86%E8%A6%86%E7%9B%96%E7%8E%87%26lt%3B%2Fh1%26gt%3B%26lt%3Bp%20style%3D%26quot%3Bfont-size%3A%2016px%3B%26quot%3B%26gt%3B%26lt%3Bfont%20style%3D%26quot%3Bfont-size%3A%2016px%3B%26quot%3B%26gt%3B%E4%BB%A3%E7%A0%81%E5%85%A5%E5%8F%A3%EF%BC%9AActionPipeMsgObserver%23consumerMessage%26lt%3B%2Ffont%26gt%3B%26lt%3Bspan%20style%3D%26quot%3Bcolor%3A%20rgba(0%2C%200%2C%200%2C%200)%3B%20font-family%3A%20monospace%3B%20font-size%3A%200px%3B%20text-wrap%3A%20nowrap%3B%20background-color%3A%20initial%3B%26quot%3B%26gt%3B%253CmxGraphModel%253E%253Croot%253E%253CmxCell%2520id%253D%25220%2522%252F%253E%253CmxCell%2520id%253D%25221%2522%2520parent%253D%25220%2522%252F%253E%253CmxCell%2520id%253D%25222%2522%2520value%253D%2522%2526lt%253Bh1%2520style%253D%2526quot%253Bmargin-top%253A%25200px%253B%2526quot%253B%2526gt%253B%25E7%25B2%25BE%25E5%2587%2586%25E5%25AF%25B9%25E6%258E%25A5%2526lt%253B%252Fh1%2526gt%253B%2526lt%253Bp%2520style%253D%2526quot%253Bfont-size%253A%252016px%253B%2526quot%253B%2526gt%253B%2526lt%253Bfont%2520style%253D%2526quot%253Bfont-size%253A%252016px%253B%2526quot%253B%2526gt%253B%25E4%25BB%25A3%25E7%25A0%2581%25E5%2585%25A5%25E5%258F%25A3%25EF%25BC%259ACoverageAction%2523moduleCreateMessage%2526lt%253B%252Ffont%2526gt%253B%2526lt%253B%252Fp%2526gt%253B%2526lt%253Bp%2520style%253D%2526quot%253Bfont-size%253A%252016px%253B%2526quot%253B%2526gt%253B%2526lt%253Bfont%2520style%253D%2526quot%253Bfont-size%253A%252016px%253B%2526quot%253B%2526gt%253B%25E6%25B6%2588%25E8%25B4%25B9topic%25EF%25BC%259AcheckOnData%2526lt%253B%252Ffont%2526gt%253B%2526lt%253B%252Fp%2526gt%253B%2522%2520style%253D%2522text%253Bhtml%253D1%253BwhiteSpace%253Dwrap%253Boverflow%253Dhidden%253Brounded%253D0%253B%2522%2520vertex%253D%25221%2522%2520parent%253D%25221%2522%253E%253CmxGeometry%2520x%253D%2522400%2522%2520y%253D%252280%2522%2520width%253D%2522390%2522%2520height%253D%2522140%2522%2520as%253D%2522geometry%2522%252F%253E%253C%252FmxCell%253E%253C%252Froot%253E%253C%252FmxGraphModel%253E%26lt%3B%2Fspan%26gt%3B%26lt%3B%2Fp%26gt%3B%26lt%3Bp%20style%3D%26quot%3Bfont-size%3A%2016px%3B%26quot%3B%26gt%3B%26lt%3Bfont%20style%3D%26quot%3Bfont-size%3A%2016px%3B%26quot%3B%26gt%3B%E5%85%A5%E5%8F%A3%E9%80%BB%E8%BE%91%EF%BC%9A%E5%AE%9E%E7%8E%B0vpaas%E6%89%93%E5%8C%85%E6%B6%88%E6%81%AF%E7%9A%84%E7%9B%91%E5%90%AC%E8%80%85%26lt%3B%2Ffont%26gt%3B%26lt%3B%2Fp%26gt%3B%22%20style%3D%22text%3Bhtml%3D1%3BwhiteSpace%3Dwrap%3Boverflow%3Dhidden%3Brounded%3D0%3B%22%20vertex%3D%221%22%20parent%3D%221%22%3E%3CmxGeometry%20x%3D%22840%22%20y%3D%22250%22%20width%3D%22450%22%20height%3D%22120%22%20as%3D%22geometry%22%2F%3E%3C%2FmxCell%3E%3C%2Froot%3E%3C%2FmxGraphModel%3E&lt;/span&gt;&lt;span style=&quot;background-color: initial; color: rgba(0, 0, 0, 0); font-family: monospace; font-size: 0px; text-wrap: nowrap;&quot;&gt;%3CmxGraphModel%3E%3Croot%3E%3CmxCell%20id%3D%220%22%2F%3E%3CmxCell%20id%3D%221%22%20parent%3D%220%22%2F%3E%3CmxCell%20id%3D%222%22%20value%3D%22%26lt%3Bh1%20style%3D%26quot%3Bmargin-top%3A%200px%3B%26quot%3B%26gt%3B%E7%B2%BE%E5%87%86%E5%AF%B9%E6%8E%A5%26lt%3B%2Fh1%26gt%3B%26lt%3Bp%20style%3D%26quot%3Bfont-size%3A%2016px%3B%26quot%3B%26gt%3B%26lt%3Bfont%20style%3D%26quot%3Bfont-size%3A%2016px%3B%26quot%3B%26gt%3B%E4%BB%A3%E7%A0%81%E5%85%A5%E5%8F%A3%EF%BC%9ACoverageAction%23moduleCreateMessage%26lt%3B%2Ffont%26gt%3B%26lt%3B%2Fp%26gt%3B%26lt%3Bp%20style%3D%26quot%3Bfont-size%3A%2016px%3B%26quot%3B%26gt%3B%26lt%3Bfont%20style%3D%26quot%3Bfont-size%3A%2016px%3B%26quot%3B%26gt%3B%E6%B6%88%E8%B4%B9topic%EF%BC%9AcheckOnData%26lt%3B%2Ffont%26gt%3B%26lt%3B%2Fp%26gt%3B%22%20style%3D%22text%3Bhtml%3D1%3BwhiteSpace%3Dwrap%3Boverflow%3Dhidden%3Brounded%3D0%3B%22%20vertex%3D%221%22%20parent%3D%221%22%3E%3CmxGeometry%20x%3D%22400%22%20y%3D%2280%22%20width%3D%22390%22%20height%3D%22140%22%20as%3D%22geometry%22%2F%3E%3C%2FmxCell%3E%3C%2Froot%3E%3C%2FmxGraphModel%3E&lt;/span&gt;&lt;/p&gt;&lt;p style=&quot;font-size: 16px;&quot;&gt;&lt;font style=&quot;font-size: 16px;&quot;&gt;入口逻辑：实现task初始化的监听者&lt;/font&gt;&lt;/p&gt;" style="text;html=1;whiteSpace=wrap;overflow=hidden;rounded=0;" parent="1" vertex="1">
          <mxGeometry x="110" y="320" width="450" height="120" as="geometry" />
        </mxCell>
        <mxCell id="-3GkACIyukzAmPRYfmAO-7" value="&lt;h1 style=&quot;margin-top: 0px;&quot;&gt;动作超时&lt;/h1&gt;&lt;p style=&quot;font-size: 16px;&quot;&gt;&lt;font style=&quot;font-size: 16px;&quot;&gt;代码入口：ActionOvertTimeScheduled#actionOverTimeCheck&lt;/font&gt;&lt;/p&gt;&lt;p style=&quot;font-size: 16px;&quot;&gt;定时任务：30S&lt;/p&gt;&lt;p style=&quot;font-size: 16px;&quot;&gt;&lt;span style=&quot;color: rgba(0, 0, 0, 0); font-family: monospace; font-size: 0px; text-wrap: nowrap; background-color: initial;&quot;&gt;%3CmxGraphModel%3E%3Croot%3E%3CmxCell%20id%3D%220%22%2F%3E%3CmxCell%20id%3D%221%22%20parent%3D%220%22%2F%3E%3CmxCell%20id%3D%222%22%20value%3D%22%26lt%3Bh1%20style%3D%26quot%3Bmargin-top%3A%200px%3B%26quot%3B%26gt%3B%E8%BD%AC%E9%98%B6%E6%AE%B5%E6%94%B6%E9%9B%86%E8%A6%86%E7%9B%96%E7%8E%87%26lt%3B%2Fh1%26gt%3B%26lt%3Bp%20style%3D%26quot%3Bfont-size%3A%2016px%3B%26quot%3B%26gt%3B%26lt%3Bfont%20style%3D%26quot%3Bfont-size%3A%2016px%3B%26quot%3B%26gt%3B%E4%BB%A3%E7%A0%81%E5%85%A5%E5%8F%A3%EF%BC%9AActionPipeMsgObserver%23consumerMessage%26lt%3B%2Ffont%26gt%3B%26lt%3Bspan%20style%3D%26quot%3Bcolor%3A%20rgba(0%2C%200%2C%200%2C%200)%3B%20font-family%3A%20monospace%3B%20font-size%3A%200px%3B%20text-wrap%3A%20nowrap%3B%20background-color%3A%20initial%3B%26quot%3B%26gt%3B%253CmxGraphModel%253E%253Croot%253E%253CmxCell%2520id%253D%25220%2522%252F%253E%253CmxCell%2520id%253D%25221%2522%2520parent%253D%25220%2522%252F%253E%253CmxCell%2520id%253D%25222%2522%2520value%253D%2522%2526lt%253Bh1%2520style%253D%2526quot%253Bmargin-top%253A%25200px%253B%2526quot%253B%2526gt%253B%25E7%25B2%25BE%25E5%2587%2586%25E5%25AF%25B9%25E6%258E%25A5%2526lt%253B%252Fh1%2526gt%253B%2526lt%253Bp%2520style%253D%2526quot%253Bfont-size%253A%252016px%253B%2526quot%253B%2526gt%253B%2526lt%253Bfont%2520style%253D%2526quot%253Bfont-size%253A%252016px%253B%2526quot%253B%2526gt%253B%25E4%25BB%25A3%25E7%25A0%2581%25E5%2585%25A5%25E5%258F%25A3%25EF%25BC%259ACoverageAction%2523moduleCreateMessage%2526lt%253B%252Ffont%2526gt%253B%2526lt%253B%252Fp%2526gt%253B%2526lt%253Bp%2520style%253D%2526quot%253Bfont-size%253A%252016px%253B%2526quot%253B%2526gt%253B%2526lt%253Bfont%2520style%253D%2526quot%253Bfont-size%253A%252016px%253B%2526quot%253B%2526gt%253B%25E6%25B6%2588%25E8%25B4%25B9topic%25EF%25BC%259AcheckOnData%2526lt%253B%252Ffont%2526gt%253B%2526lt%253B%252Fp%2526gt%253B%2522%2520style%253D%2522text%253Bhtml%253D1%253BwhiteSpace%253Dwrap%253Boverflow%253Dhidden%253Brounded%253D0%253B%2522%2520vertex%253D%25221%2522%2520parent%253D%25221%2522%253E%253CmxGeometry%2520x%253D%2522400%2522%2520y%253D%252280%2522%2520width%253D%2522390%2522%2520height%253D%2522140%2522%2520as%253D%2522geometry%2522%252F%253E%253C%252FmxCell%253E%253C%252Froot%253E%253C%252FmxGraphModel%253E%26lt%3B%2Fspan%26gt%3B%26lt%3B%2Fp%26gt%3B%26lt%3Bp%20style%3D%26quot%3Bfont-size%3A%2016px%3B%26quot%3B%26gt%3B%26lt%3Bfont%20style%3D%26quot%3Bfont-size%3A%2016px%3B%26quot%3B%26gt%3B%E5%85%A5%E5%8F%A3%E9%80%BB%E8%BE%91%EF%BC%9A%E5%AE%9E%E7%8E%B0vpaas%E6%89%93%E5%8C%85%E6%B6%88%E6%81%AF%E7%9A%84%E7%9B%91%E5%90%AC%E8%80%85%26lt%3B%2Ffont%26gt%3B%26lt%3B%2Fp%26gt%3B%22%20style%3D%22text%3Bhtml%3D1%3BwhiteSpace%3Dwrap%3Boverflow%3Dhidden%3Brounded%3D0%3B%22%20vertex%3D%221%22%20parent%3D%221%22%3E%3CmxGeometry%20x%3D%22840%22%20y%3D%22250%22%20width%3D%22450%22%20height%3D%22120%22%20as%3D%22geometry%22%2F%3E%3C%2FmxCell%3E%3C%2Froot%3E%3C%2FmxGraphModel%3E&lt;/span&gt;&lt;span style=&quot;background-color: initial; color: rgba(0, 0, 0, 0); font-family: monospace; font-size: 0px; text-wrap: nowrap;&quot;&gt;%3CmxGraphModel%3E%3Croot%3E%3CmxCell%20id%3D%220%22%2F%3E%3CmxCell%20id%3D%221%22%20parent%3D%220%22%2F%3E%3CmxCell%20id%3D%222%22%20value%3D%22%26lt%3Bh1%20style%3D%26quot%3Bmargin-top%3A%200px%3B%26quot%3B%26gt%3B%E7%B2%BE%E5%87%86%E5%AF%B9%E6%8E%A5%26lt%3B%2Fh1%26gt%3B%26lt%3Bp%20style%3D%26quot%3Bfont-size%3A%2016px%3B%26quot%3B%26gt%3B%26lt%3Bfont%20style%3D%26quot%3Bfont-size%3A%2016px%3B%26quot%3B%26gt%3B%E4%BB%A3%E7%A0%81%E5%85%A5%E5%8F%A3%EF%BC%9ACoverageAction%23moduleCreateMessage%26lt%3B%2Ffont%26gt%3B%26lt%3B%2Fp%26gt%3B%26lt%3Bp%20style%3D%26quot%3Bfont-size%3A%2016px%3B%26quot%3B%26gt%3B%26lt%3Bfont%20style%3D%26quot%3Bfont-size%3A%2016px%3B%26quot%3B%26gt%3B%E6%B6%88%E8%B4%B9topic%EF%BC%9AcheckOnData%26lt%3B%2Ffont%26gt%3B%26lt%3B%2Fp%26gt%3B%22%20style%3D%22text%3Bhtml%3D1%3BwhiteSpace%3Dwrap%3Boverflow%3Dhidden%3Brounded%3D0%3B%22%20vertex%3D%221%22%20parent%3D%221%22%3E%3CmxGeometry%20x%3D%22400%22%20y%3D%2280%22%20width%3D%22390%22%20height%3D%22140%22%20as%3D%22geometry%22%2F%3E%3C%2FmxCell%3E%3C%2Froot%3E%3C%2FmxGraphModel%3E&lt;/span&gt;&lt;/p&gt;" style="text;html=1;whiteSpace=wrap;overflow=hidden;rounded=0;" parent="1" vertex="1">
          <mxGeometry x="121" y="510" width="470" height="120" as="geometry" />
        </mxCell>
        <mxCell id="-3GkACIyukzAmPRYfmAO-8" value="&lt;div&gt;&lt;font color=&quot;#ff3333&quot; size=&quot;1&quot; face=&quot;Public Sans, -apple-system, BlinkMacSystemFont, Segoe UI, Oxygen, Ubuntu, Cantarell, Fira Sans, Droid Sans, Helvetica Neue, sans-serif&quot;&gt;&lt;span style=&quot;white-space-collapse: preserve-breaks; background-color: rgb(255, 255, 255); font-size: 17px;&quot;&gt;&lt;b&gt;精准推送的消息结构：&lt;/b&gt;&lt;/span&gt;&lt;/font&gt;&lt;/div&gt;&lt;span style=&quot;box-sizing: border-box; vertical-align: middle; font-size: 1.125rem; line-height: 1; display: inline-block; speak: none; font-variant-numeric: normal; font-variant-east-asian: normal; font-variant-alternates: normal; font-variant-position: normal; -webkit-font-smoothing: antialiased; color: var(--bs-danger); position: relative; top: -1px; white-space-collapse: preserve-breaks; background-color: rgb(255, 255, 255); cursor: pointer; font-family: tabler-icons !important;&quot; class=&quot;ti ti-square-rounded-minus&quot;&gt;&lt;/span&gt;&lt;span style=&quot;color: rgb(112, 125, 107); font-family: &amp;quot;Public Sans&amp;quot;, -apple-system, BlinkMacSystemFont, &amp;quot;Segoe UI&amp;quot;, Oxygen, Ubuntu, Cantarell, &amp;quot;Fira Sans&amp;quot;, &amp;quot;Droid Sans&amp;quot;, &amp;quot;Helvetica Neue&amp;quot;, sans-serif; font-size: 15px; white-space-collapse: preserve-breaks; background-color: rgb(255, 255, 255);&quot;&gt;{&lt;/span&gt;&lt;br style=&quot;box-sizing: border-box; color: rgb(112, 125, 107); font-family: &amp;quot;Public Sans&amp;quot;, -apple-system, BlinkMacSystemFont, &amp;quot;Segoe UI&amp;quot;, Oxygen, Ubuntu, Cantarell, &amp;quot;Fira Sans&amp;quot;, &amp;quot;Droid Sans&amp;quot;, &amp;quot;Helvetica Neue&amp;quot;, sans-serif; font-size: 15px; white-space-collapse: preserve-breaks; background-color: rgb(255, 255, 255);&quot;&gt;&lt;span style=&quot;box-sizing: border-box; letter-spacing: 4px; color: rgb(112, 125, 107); font-family: &amp;quot;Public Sans&amp;quot;, -apple-system, BlinkMacSystemFont, &amp;quot;Segoe UI&amp;quot;, Oxygen, Ubuntu, Cantarell, &amp;quot;Fira Sans&amp;quot;, &amp;quot;Droid Sans&amp;quot;, &amp;quot;Helvetica Neue&amp;quot;, sans-serif; font-size: 15px; white-space-collapse: preserve-breaks; background-color: rgb(255, 255, 255);&quot; class=&quot;json_nbsp&quot;&gt;&amp;nbsp;&amp;nbsp;&amp;nbsp;&amp;nbsp;&lt;/span&gt;&lt;span style=&quot;box-sizing: border-box; color: rgb(146, 39, 143); font-weight: bold; font-family: &amp;quot;Public Sans&amp;quot;, -apple-system, BlinkMacSystemFont, &amp;quot;Segoe UI&amp;quot;, Oxygen, Ubuntu, Cantarell, &amp;quot;Fira Sans&amp;quot;, &amp;quot;Droid Sans&amp;quot;, &amp;quot;Helvetica Neue&amp;quot;, sans-serif; font-size: 15px; white-space-collapse: preserve-breaks; background-color: rgb(255, 255, 255);&quot; class=&quot;json_key&quot;&gt;&quot;branch&quot;&lt;/span&gt;&lt;span style=&quot;color: rgb(112, 125, 107); font-family: &amp;quot;Public Sans&amp;quot;, -apple-system, BlinkMacSystemFont, &amp;quot;Segoe UI&amp;quot;, Oxygen, Ubuntu, Cantarell, &amp;quot;Fira Sans&amp;quot;, &amp;quot;Droid Sans&amp;quot;, &amp;quot;Helvetica Neue&amp;quot;, sans-serif; font-size: 15px; white-space-collapse: preserve-breaks; background-color: rgb(255, 255, 255);&quot;&gt;:&lt;/span&gt;&lt;span style=&quot;box-sizing: border-box; letter-spacing: 4px; color: rgb(112, 125, 107); font-family: &amp;quot;Public Sans&amp;quot;, -apple-system, BlinkMacSystemFont, &amp;quot;Segoe UI&amp;quot;, Oxygen, Ubuntu, Cantarell, &amp;quot;Fira Sans&amp;quot;, &amp;quot;Droid Sans&amp;quot;, &amp;quot;Helvetica Neue&amp;quot;, sans-serif; font-size: 15px; white-space-collapse: preserve-breaks; background-color: rgb(255, 255, 255);&quot; class=&quot;json_nbsp&quot;&gt;&amp;nbsp;&lt;/span&gt;&lt;span style=&quot;box-sizing: border-box; color: rgb(58, 181, 74); font-weight: bold; font-family: &amp;quot;Public Sans&amp;quot;, -apple-system, BlinkMacSystemFont, &amp;quot;Segoe UI&amp;quot;, Oxygen, Ubuntu, Cantarell, &amp;quot;Fira Sans&amp;quot;, &amp;quot;Droid Sans&amp;quot;, &amp;quot;Helvetica Neue&amp;quot;, sans-serif; font-size: 15px; white-space-collapse: preserve-breaks; background-color: rgb(255, 255, 255);&quot; class=&quot;json_string&quot;&gt;&quot;master&quot;&lt;/span&gt;&lt;span style=&quot;color: rgb(112, 125, 107); font-family: &amp;quot;Public Sans&amp;quot;, -apple-system, BlinkMacSystemFont, &amp;quot;Segoe UI&amp;quot;, Oxygen, Ubuntu, Cantarell, &amp;quot;Fira Sans&amp;quot;, &amp;quot;Droid Sans&amp;quot;, &amp;quot;Helvetica Neue&amp;quot;, sans-serif; font-size: 15px; white-space-collapse: preserve-breaks; background-color: rgb(255, 255, 255);&quot;&gt;,&lt;/span&gt;&lt;br style=&quot;box-sizing: border-box; color: rgb(112, 125, 107); font-family: &amp;quot;Public Sans&amp;quot;, -apple-system, BlinkMacSystemFont, &amp;quot;Segoe UI&amp;quot;, Oxygen, Ubuntu, Cantarell, &amp;quot;Fira Sans&amp;quot;, &amp;quot;Droid Sans&amp;quot;, &amp;quot;Helvetica Neue&amp;quot;, sans-serif; font-size: 15px; white-space-collapse: preserve-breaks; background-color: rgb(255, 255, 255);&quot;&gt;&lt;span style=&quot;box-sizing: border-box; letter-spacing: 4px; color: rgb(112, 125, 107); font-family: &amp;quot;Public Sans&amp;quot;, -apple-system, BlinkMacSystemFont, &amp;quot;Segoe UI&amp;quot;, Oxygen, Ubuntu, Cantarell, &amp;quot;Fira Sans&amp;quot;, &amp;quot;Droid Sans&amp;quot;, &amp;quot;Helvetica Neue&amp;quot;, sans-serif; font-size: 15px; white-space-collapse: preserve-breaks; background-color: rgb(255, 255, 255);&quot; class=&quot;json_nbsp&quot;&gt;&amp;nbsp;&amp;nbsp;&amp;nbsp;&amp;nbsp;&lt;/span&gt;&lt;span style=&quot;box-sizing: border-box; color: rgb(146, 39, 143); font-weight: bold; font-family: &amp;quot;Public Sans&amp;quot;, -apple-system, BlinkMacSystemFont, &amp;quot;Segoe UI&amp;quot;, Oxygen, Ubuntu, Cantarell, &amp;quot;Fira Sans&amp;quot;, &amp;quot;Droid Sans&amp;quot;, &amp;quot;Helvetica Neue&amp;quot;, sans-serif; font-size: 15px; white-space-collapse: preserve-breaks; background-color: rgb(255, 255, 255);&quot; class=&quot;json_key&quot;&gt;&quot;callbackUrl&quot;&lt;/span&gt;&lt;span style=&quot;color: rgb(112, 125, 107); font-family: &amp;quot;Public Sans&amp;quot;, -apple-system, BlinkMacSystemFont, &amp;quot;Segoe UI&amp;quot;, Oxygen, Ubuntu, Cantarell, &amp;quot;Fira Sans&amp;quot;, &amp;quot;Droid Sans&amp;quot;, &amp;quot;Helvetica Neue&amp;quot;, sans-serif; font-size: 15px; white-space-collapse: preserve-breaks; background-color: rgb(255, 255, 255);&quot;&gt;:&lt;/span&gt;&lt;span style=&quot;box-sizing: border-box; letter-spacing: 4px; color: rgb(112, 125, 107); font-family: &amp;quot;Public Sans&amp;quot;, -apple-system, BlinkMacSystemFont, &amp;quot;Segoe UI&amp;quot;, Oxygen, Ubuntu, Cantarell, &amp;quot;Fira Sans&amp;quot;, &amp;quot;Droid Sans&amp;quot;, &amp;quot;Helvetica Neue&amp;quot;, sans-serif; font-size: 15px; white-space-collapse: preserve-breaks; background-color: rgb(255, 255, 255);&quot; class=&quot;json_nbsp&quot;&gt;&amp;nbsp;&lt;/span&gt;&lt;span style=&quot;box-sizing: border-box; color: rgb(58, 181, 74); font-weight: bold; font-family: &amp;quot;Public Sans&amp;quot;, -apple-system, BlinkMacSystemFont, &amp;quot;Segoe UI&amp;quot;, Oxygen, Ubuntu, Cantarell, &amp;quot;Fira Sans&amp;quot;, &amp;quot;Droid Sans&amp;quot;, &amp;quot;Helvetica Neue&amp;quot;, sans-serif; font-size: 15px; white-space-collapse: preserve-breaks; background-color: rgb(255, 255, 255);&quot; class=&quot;json_string&quot;&gt;&quot;&lt;a style=&quot;box-sizing: border-box; color: rgb(97, 210, 214); text-decoration-line: none;&quot; class=&quot;json_link&quot; target=&quot;_blank&quot; href=&quot;http://arrow.tools.vipshop.com/app/v1/arrow/getCicdKadianKafkaMessage?domain=osp-checkout.api.vip.com&amp;amp;branch=master&amp;amp;stage=2&quot;&gt;http://arrow.tools.vipshop.com/app/v1/arrow/getCicdKadianKafkaMessage?domain=osp-checkout.api.vip.com&amp;amp;branch=master&amp;amp;stage=2&lt;/a&gt;&quot;&lt;/span&gt;&lt;span style=&quot;color: rgb(112, 125, 107); font-family: &amp;quot;Public Sans&amp;quot;, -apple-system, BlinkMacSystemFont, &amp;quot;Segoe UI&amp;quot;, Oxygen, Ubuntu, Cantarell, &amp;quot;Fira Sans&amp;quot;, &amp;quot;Droid Sans&amp;quot;, &amp;quot;Helvetica Neue&amp;quot;, sans-serif; font-size: 15px; white-space-collapse: preserve-breaks; background-color: rgb(255, 255, 255);&quot;&gt;,&lt;/span&gt;&lt;br style=&quot;box-sizing: border-box; color: rgb(112, 125, 107); font-family: &amp;quot;Public Sans&amp;quot;, -apple-system, BlinkMacSystemFont, &amp;quot;Segoe UI&amp;quot;, Oxygen, Ubuntu, Cantarell, &amp;quot;Fira Sans&amp;quot;, &amp;quot;Droid Sans&amp;quot;, &amp;quot;Helvetica Neue&amp;quot;, sans-serif; font-size: 15px; white-space-collapse: preserve-breaks; background-color: rgb(255, 255, 255);&quot;&gt;&lt;span style=&quot;box-sizing: border-box; letter-spacing: 4px; color: rgb(112, 125, 107); font-family: &amp;quot;Public Sans&amp;quot;, -apple-system, BlinkMacSystemFont, &amp;quot;Segoe UI&amp;quot;, Oxygen, Ubuntu, Cantarell, &amp;quot;Fira Sans&amp;quot;, &amp;quot;Droid Sans&amp;quot;, &amp;quot;Helvetica Neue&amp;quot;, sans-serif; font-size: 15px; white-space-collapse: preserve-breaks; background-color: rgb(255, 255, 255);&quot; class=&quot;json_nbsp&quot;&gt;&amp;nbsp;&amp;nbsp;&amp;nbsp;&amp;nbsp;&lt;/span&gt;&lt;span style=&quot;box-sizing: border-box; color: rgb(146, 39, 143); font-weight: bold; font-family: &amp;quot;Public Sans&amp;quot;, -apple-system, BlinkMacSystemFont, &amp;quot;Segoe UI&amp;quot;, Oxygen, Ubuntu, Cantarell, &amp;quot;Fira Sans&amp;quot;, &amp;quot;Droid Sans&amp;quot;, &amp;quot;Helvetica Neue&amp;quot;, sans-serif; font-size: 15px; white-space-collapse: preserve-breaks; background-color: rgb(255, 255, 255);&quot; class=&quot;json_key&quot;&gt;&quot;domain&quot;&lt;/span&gt;&lt;span style=&quot;color: rgb(112, 125, 107); font-family: &amp;quot;Public Sans&amp;quot;, -apple-system, BlinkMacSystemFont, &amp;quot;Segoe UI&amp;quot;, Oxygen, Ubuntu, Cantarell, &amp;quot;Fira Sans&amp;quot;, &amp;quot;Droid Sans&amp;quot;, &amp;quot;Helvetica Neue&amp;quot;, sans-serif; font-size: 15px; white-space-collapse: preserve-breaks; background-color: rgb(255, 255, 255);&quot;&gt;:&lt;/span&gt;&lt;span style=&quot;box-sizing: border-box; letter-spacing: 4px; color: rgb(112, 125, 107); font-family: &amp;quot;Public Sans&amp;quot;, -apple-system, BlinkMacSystemFont, &amp;quot;Segoe UI&amp;quot;, Oxygen, Ubuntu, Cantarell, &amp;quot;Fira Sans&amp;quot;, &amp;quot;Droid Sans&amp;quot;, &amp;quot;Helvetica Neue&amp;quot;, sans-serif; font-size: 15px; white-space-collapse: preserve-breaks; background-color: rgb(255, 255, 255);&quot; class=&quot;json_nbsp&quot;&gt;&amp;nbsp;&lt;/span&gt;&lt;span style=&quot;box-sizing: border-box; color: rgb(58, 181, 74); font-weight: bold; font-family: &amp;quot;Public Sans&amp;quot;, -apple-system, BlinkMacSystemFont, &amp;quot;Segoe UI&amp;quot;, Oxygen, Ubuntu, Cantarell, &amp;quot;Fira Sans&amp;quot;, &amp;quot;Droid Sans&amp;quot;, &amp;quot;Helvetica Neue&amp;quot;, sans-serif; font-size: 15px; white-space-collapse: preserve-breaks; background-color: rgb(255, 255, 255);&quot; class=&quot;json_string&quot;&gt;&quot;osp-checkout.api.vip.com&quot;&lt;/span&gt;&lt;span style=&quot;color: rgb(112, 125, 107); font-family: &amp;quot;Public Sans&amp;quot;, -apple-system, BlinkMacSystemFont, &amp;quot;Segoe UI&amp;quot;, Oxygen, Ubuntu, Cantarell, &amp;quot;Fira Sans&amp;quot;, &amp;quot;Droid Sans&amp;quot;, &amp;quot;Helvetica Neue&amp;quot;, sans-serif; font-size: 15px; white-space-collapse: preserve-breaks; background-color: rgb(255, 255, 255);&quot;&gt;,&lt;/span&gt;&lt;br style=&quot;box-sizing: border-box; color: rgb(112, 125, 107); font-family: &amp;quot;Public Sans&amp;quot;, -apple-system, BlinkMacSystemFont, &amp;quot;Segoe UI&amp;quot;, Oxygen, Ubuntu, Cantarell, &amp;quot;Fira Sans&amp;quot;, &amp;quot;Droid Sans&amp;quot;, &amp;quot;Helvetica Neue&amp;quot;, sans-serif; font-size: 15px; white-space-collapse: preserve-breaks; background-color: rgb(255, 255, 255);&quot;&gt;&lt;span style=&quot;box-sizing: border-box; letter-spacing: 4px; color: rgb(112, 125, 107); font-family: &amp;quot;Public Sans&amp;quot;, -apple-system, BlinkMacSystemFont, &amp;quot;Segoe UI&amp;quot;, Oxygen, Ubuntu, Cantarell, &amp;quot;Fira Sans&amp;quot;, &amp;quot;Droid Sans&amp;quot;, &amp;quot;Helvetica Neue&amp;quot;, sans-serif; font-size: 15px; white-space-collapse: preserve-breaks; background-color: rgb(255, 255, 255);&quot; class=&quot;json_nbsp&quot;&gt;&amp;nbsp;&amp;nbsp;&amp;nbsp;&amp;nbsp;&lt;/span&gt;&lt;span style=&quot;box-sizing: border-box; color: rgb(146, 39, 143); font-weight: bold; font-family: &amp;quot;Public Sans&amp;quot;, -apple-system, BlinkMacSystemFont, &amp;quot;Segoe UI&amp;quot;, Oxygen, Ubuntu, Cantarell, &amp;quot;Fira Sans&amp;quot;, &amp;quot;Droid Sans&amp;quot;, &amp;quot;Helvetica Neue&amp;quot;, sans-serif; font-size: 15px; white-space-collapse: preserve-breaks; background-color: rgb(255, 255, 255);&quot; class=&quot;json_key&quot;&gt;&quot;fromCommitId&quot;&lt;/span&gt;&lt;span style=&quot;color: rgb(112, 125, 107); font-family: &amp;quot;Public Sans&amp;quot;, -apple-system, BlinkMacSystemFont, &amp;quot;Segoe UI&amp;quot;, Oxygen, Ubuntu, Cantarell, &amp;quot;Fira Sans&amp;quot;, &amp;quot;Droid Sans&amp;quot;, &amp;quot;Helvetica Neue&amp;quot;, sans-serif; font-size: 15px; white-space-collapse: preserve-breaks; background-color: rgb(255, 255, 255);&quot;&gt;:&lt;/span&gt;&lt;span style=&quot;box-sizing: border-box; letter-spacing: 4px; color: rgb(112, 125, 107); font-family: &amp;quot;Public Sans&amp;quot;, -apple-system, BlinkMacSystemFont, &amp;quot;Segoe UI&amp;quot;, Oxygen, Ubuntu, Cantarell, &amp;quot;Fira Sans&amp;quot;, &amp;quot;Droid Sans&amp;quot;, &amp;quot;Helvetica Neue&amp;quot;, sans-serif; font-size: 15px; white-space-collapse: preserve-breaks; background-color: rgb(255, 255, 255);&quot; class=&quot;json_nbsp&quot;&gt;&amp;nbsp;&lt;/span&gt;&lt;span style=&quot;box-sizing: border-box; color: rgb(58, 181, 74); font-weight: bold; font-family: &amp;quot;Public Sans&amp;quot;, -apple-system, BlinkMacSystemFont, &amp;quot;Segoe UI&amp;quot;, Oxygen, Ubuntu, Cantarell, &amp;quot;Fira Sans&amp;quot;, &amp;quot;Droid Sans&amp;quot;, &amp;quot;Helvetica Neue&amp;quot;, sans-serif; font-size: 15px; white-space-collapse: preserve-breaks; background-color: rgb(255, 255, 255);&quot; class=&quot;json_string&quot;&gt;&quot;b9193522184ce9727eb41d4d7901b9225a48361f&quot;&lt;/span&gt;&lt;span style=&quot;color: rgb(112, 125, 107); font-family: &amp;quot;Public Sans&amp;quot;, -apple-system, BlinkMacSystemFont, &amp;quot;Segoe UI&amp;quot;, Oxygen, Ubuntu, Cantarell, &amp;quot;Fira Sans&amp;quot;, &amp;quot;Droid Sans&amp;quot;, &amp;quot;Helvetica Neue&amp;quot;, sans-serif; font-size: 15px; white-space-collapse: preserve-breaks; background-color: rgb(255, 255, 255);&quot;&gt;,&lt;/span&gt;&lt;br style=&quot;box-sizing: border-box; color: rgb(112, 125, 107); font-family: &amp;quot;Public Sans&amp;quot;, -apple-system, BlinkMacSystemFont, &amp;quot;Segoe UI&amp;quot;, Oxygen, Ubuntu, Cantarell, &amp;quot;Fira Sans&amp;quot;, &amp;quot;Droid Sans&amp;quot;, &amp;quot;Helvetica Neue&amp;quot;, sans-serif; font-size: 15px; white-space-collapse: preserve-breaks; background-color: rgb(255, 255, 255);&quot;&gt;&lt;span style=&quot;box-sizing: border-box; letter-spacing: 4px; color: rgb(112, 125, 107); font-family: &amp;quot;Public Sans&amp;quot;, -apple-system, BlinkMacSystemFont, &amp;quot;Segoe UI&amp;quot;, Oxygen, Ubuntu, Cantarell, &amp;quot;Fira Sans&amp;quot;, &amp;quot;Droid Sans&amp;quot;, &amp;quot;Helvetica Neue&amp;quot;, sans-serif; font-size: 15px; white-space-collapse: preserve-breaks; background-color: rgb(255, 255, 255);&quot; class=&quot;json_nbsp&quot;&gt;&amp;nbsp;&amp;nbsp;&amp;nbsp;&amp;nbsp;&lt;/span&gt;&lt;span style=&quot;box-sizing: border-box; color: rgb(146, 39, 143); font-weight: bold; font-family: &amp;quot;Public Sans&amp;quot;, -apple-system, BlinkMacSystemFont, &amp;quot;Segoe UI&amp;quot;, Oxygen, Ubuntu, Cantarell, &amp;quot;Fira Sans&amp;quot;, &amp;quot;Droid Sans&amp;quot;, &amp;quot;Helvetica Neue&amp;quot;, sans-serif; font-size: 15px; white-space-collapse: preserve-breaks; background-color: rgb(255, 255, 255);&quot; class=&quot;json_key&quot;&gt;&quot;isPass&quot;&lt;/span&gt;&lt;span style=&quot;color: rgb(112, 125, 107); font-family: &amp;quot;Public Sans&amp;quot;, -apple-system, BlinkMacSystemFont, &amp;quot;Segoe UI&amp;quot;, Oxygen, Ubuntu, Cantarell, &amp;quot;Fira Sans&amp;quot;, &amp;quot;Droid Sans&amp;quot;, &amp;quot;Helvetica Neue&amp;quot;, sans-serif; font-size: 15px; white-space-collapse: preserve-breaks; background-color: rgb(255, 255, 255);&quot;&gt;:&lt;/span&gt;&lt;span style=&quot;box-sizing: border-box; letter-spacing: 4px; color: rgb(112, 125, 107); font-family: &amp;quot;Public Sans&amp;quot;, -apple-system, BlinkMacSystemFont, &amp;quot;Segoe UI&amp;quot;, Oxygen, Ubuntu, Cantarell, &amp;quot;Fira Sans&amp;quot;, &amp;quot;Droid Sans&amp;quot;, &amp;quot;Helvetica Neue&amp;quot;, sans-serif; font-size: 15px; white-space-collapse: preserve-breaks; background-color: rgb(255, 255, 255);&quot; class=&quot;json_nbsp&quot;&gt;&amp;nbsp;&lt;/span&gt;&lt;span style=&quot;box-sizing: border-box; color: rgb(249, 130, 128); font-weight: bold; font-family: &amp;quot;Public Sans&amp;quot;, -apple-system, BlinkMacSystemFont, &amp;quot;Segoe UI&amp;quot;, Oxygen, Ubuntu, Cantarell, &amp;quot;Fira Sans&amp;quot;, &amp;quot;Droid Sans&amp;quot;, &amp;quot;Helvetica Neue&amp;quot;, sans-serif; font-size: 15px; white-space-collapse: preserve-breaks; background-color: rgb(255, 255, 255);&quot; class=&quot;json_boolean&quot;&gt;true&lt;/span&gt;&lt;span style=&quot;color: rgb(112, 125, 107); font-family: &amp;quot;Public Sans&amp;quot;, -apple-system, BlinkMacSystemFont, &amp;quot;Segoe UI&amp;quot;, Oxygen, Ubuntu, Cantarell, &amp;quot;Fira Sans&amp;quot;, &amp;quot;Droid Sans&amp;quot;, &amp;quot;Helvetica Neue&amp;quot;, sans-serif; font-size: 15px; white-space-collapse: preserve-breaks; background-color: rgb(255, 255, 255);&quot;&gt;,&lt;/span&gt;&lt;br style=&quot;box-sizing: border-box; color: rgb(112, 125, 107); font-family: &amp;quot;Public Sans&amp;quot;, -apple-system, BlinkMacSystemFont, &amp;quot;Segoe UI&amp;quot;, Oxygen, Ubuntu, Cantarell, &amp;quot;Fira Sans&amp;quot;, &amp;quot;Droid Sans&amp;quot;, &amp;quot;Helvetica Neue&amp;quot;, sans-serif; font-size: 15px; white-space-collapse: preserve-breaks; background-color: rgb(255, 255, 255);&quot;&gt;&lt;span style=&quot;box-sizing: border-box; letter-spacing: 4px; color: rgb(112, 125, 107); font-family: &amp;quot;Public Sans&amp;quot;, -apple-system, BlinkMacSystemFont, &amp;quot;Segoe UI&amp;quot;, Oxygen, Ubuntu, Cantarell, &amp;quot;Fira Sans&amp;quot;, &amp;quot;Droid Sans&amp;quot;, &amp;quot;Helvetica Neue&amp;quot;, sans-serif; font-size: 15px; white-space-collapse: preserve-breaks; background-color: rgb(255, 255, 255);&quot; class=&quot;json_nbsp&quot;&gt;&amp;nbsp;&amp;nbsp;&amp;nbsp;&amp;nbsp;&lt;/span&gt;&lt;span style=&quot;box-sizing: border-box; color: rgb(146, 39, 143); font-weight: bold; font-family: &amp;quot;Public Sans&amp;quot;, -apple-system, BlinkMacSystemFont, &amp;quot;Segoe UI&amp;quot;, Oxygen, Ubuntu, Cantarell, &amp;quot;Fira Sans&amp;quot;, &amp;quot;Droid Sans&amp;quot;, &amp;quot;Helvetica Neue&amp;quot;, sans-serif; font-size: 15px; white-space-collapse: preserve-breaks; background-color: rgb(255, 255, 255);&quot; class=&quot;json_key&quot;&gt;&quot;message&quot;&lt;/span&gt;&lt;span style=&quot;color: rgb(112, 125, 107); font-family: &amp;quot;Public Sans&amp;quot;, -apple-system, BlinkMacSystemFont, &amp;quot;Segoe UI&amp;quot;, Oxygen, Ubuntu, Cantarell, &amp;quot;Fira Sans&amp;quot;, &amp;quot;Droid Sans&amp;quot;, &amp;quot;Helvetica Neue&amp;quot;, sans-serif; font-size: 15px; white-space-collapse: preserve-breaks; background-color: rgb(255, 255, 255);&quot;&gt;:&lt;/span&gt;&lt;span style=&quot;box-sizing: border-box; letter-spacing: 4px; color: rgb(112, 125, 107); font-family: &amp;quot;Public Sans&amp;quot;, -apple-system, BlinkMacSystemFont, &amp;quot;Segoe UI&amp;quot;, Oxygen, Ubuntu, Cantarell, &amp;quot;Fira Sans&amp;quot;, &amp;quot;Droid Sans&amp;quot;, &amp;quot;Helvetica Neue&amp;quot;, sans-serif; font-size: 15px; white-space-collapse: preserve-breaks; background-color: rgb(255, 255, 255);&quot; class=&quot;json_nbsp&quot;&gt;&amp;nbsp;&lt;/span&gt;&lt;span style=&quot;box-sizing: border-box; color: rgb(58, 181, 74); font-weight: bold; font-family: &amp;quot;Public Sans&amp;quot;, -apple-system, BlinkMacSystemFont, &amp;quot;Segoe UI&amp;quot;, Oxygen, Ubuntu, Cantarell, &amp;quot;Fira Sans&amp;quot;, &amp;quot;Droid Sans&amp;quot;, &amp;quot;Helvetica Neue&amp;quot;, sans-serif; font-size: 15px; white-space-collapse: preserve-breaks; background-color: rgb(255, 255, 255);&quot; class=&quot;json_string&quot;&gt;&quot;测试通过！未设置门禁，或仅检查是否已部署，不分析差异代码！，当前覆盖率：1.0;特征值覆盖率：1.0&quot;&lt;/span&gt;&lt;span style=&quot;color: rgb(112, 125, 107); font-family: &amp;quot;Public Sans&amp;quot;, -apple-system, BlinkMacSystemFont, &amp;quot;Segoe UI&amp;quot;, Oxygen, Ubuntu, Cantarell, &amp;quot;Fira Sans&amp;quot;, &amp;quot;Droid Sans&amp;quot;, &amp;quot;Helvetica Neue&amp;quot;, sans-serif; font-size: 15px; white-space-collapse: preserve-breaks; background-color: rgb(255, 255, 255);&quot;&gt;,&lt;/span&gt;&lt;br style=&quot;box-sizing: border-box; color: rgb(112, 125, 107); font-family: &amp;quot;Public Sans&amp;quot;, -apple-system, BlinkMacSystemFont, &amp;quot;Segoe UI&amp;quot;, Oxygen, Ubuntu, Cantarell, &amp;quot;Fira Sans&amp;quot;, &amp;quot;Droid Sans&amp;quot;, &amp;quot;Helvetica Neue&amp;quot;, sans-serif; font-size: 15px; white-space-collapse: preserve-breaks; background-color: rgb(255, 255, 255);&quot;&gt;&lt;span style=&quot;box-sizing: border-box; letter-spacing: 4px; color: rgb(112, 125, 107); font-family: &amp;quot;Public Sans&amp;quot;, -apple-system, BlinkMacSystemFont, &amp;quot;Segoe UI&amp;quot;, Oxygen, Ubuntu, Cantarell, &amp;quot;Fira Sans&amp;quot;, &amp;quot;Droid Sans&amp;quot;, &amp;quot;Helvetica Neue&amp;quot;, sans-serif; font-size: 15px; white-space-collapse: preserve-breaks; background-color: rgb(255, 255, 255);&quot; class=&quot;json_nbsp&quot;&gt;&amp;nbsp;&amp;nbsp;&amp;nbsp;&amp;nbsp;&lt;/span&gt;&lt;span style=&quot;box-sizing: border-box; color: rgb(146, 39, 143); font-weight: bold; font-family: &amp;quot;Public Sans&amp;quot;, -apple-system, BlinkMacSystemFont, &amp;quot;Segoe UI&amp;quot;, Oxygen, Ubuntu, Cantarell, &amp;quot;Fira Sans&amp;quot;, &amp;quot;Droid Sans&amp;quot;, &amp;quot;Helvetica Neue&amp;quot;, sans-serif; font-size: 15px; white-space-collapse: preserve-breaks; background-color: rgb(255, 255, 255);&quot; class=&quot;json_key&quot;&gt;&quot;origin&quot;&lt;/span&gt;&lt;span style=&quot;color: rgb(112, 125, 107); font-family: &amp;quot;Public Sans&amp;quot;, -apple-system, BlinkMacSystemFont, &amp;quot;Segoe UI&amp;quot;, Oxygen, Ubuntu, Cantarell, &amp;quot;Fira Sans&amp;quot;, &amp;quot;Droid Sans&amp;quot;, &amp;quot;Helvetica Neue&amp;quot;, sans-serif; font-size: 15px; white-space-collapse: preserve-breaks; background-color: rgb(255, 255, 255);&quot;&gt;:&lt;/span&gt;&lt;span style=&quot;box-sizing: border-box; letter-spacing: 4px; color: rgb(112, 125, 107); font-family: &amp;quot;Public Sans&amp;quot;, -apple-system, BlinkMacSystemFont, &amp;quot;Segoe UI&amp;quot;, Oxygen, Ubuntu, Cantarell, &amp;quot;Fira Sans&amp;quot;, &amp;quot;Droid Sans&amp;quot;, &amp;quot;Helvetica Neue&amp;quot;, sans-serif; font-size: 15px; white-space-collapse: preserve-breaks; background-color: rgb(255, 255, 255);&quot; class=&quot;json_nbsp&quot;&gt;&amp;nbsp;&lt;/span&gt;&lt;span style=&quot;box-sizing: border-box; color: rgb(58, 181, 74); font-weight: bold; font-family: &amp;quot;Public Sans&amp;quot;, -apple-system, BlinkMacSystemFont, &amp;quot;Segoe UI&amp;quot;, Oxygen, Ubuntu, Cantarell, &amp;quot;Fira Sans&amp;quot;, &amp;quot;Droid Sans&amp;quot;, &amp;quot;Helvetica Neue&amp;quot;, sans-serif; font-size: 15px; white-space-collapse: preserve-breaks; background-color: rgb(255, 255, 255);&quot; class=&quot;json_string&quot;&gt;&quot;arrow&quot;&lt;/span&gt;&lt;span style=&quot;color: rgb(112, 125, 107); font-family: &amp;quot;Public Sans&amp;quot;, -apple-system, BlinkMacSystemFont, &amp;quot;Segoe UI&amp;quot;, Oxygen, Ubuntu, Cantarell, &amp;quot;Fira Sans&amp;quot;, &amp;quot;Droid Sans&amp;quot;, &amp;quot;Helvetica Neue&amp;quot;, sans-serif; font-size: 15px; white-space-collapse: preserve-breaks; background-color: rgb(255, 255, 255);&quot;&gt;,&lt;/span&gt;&lt;br style=&quot;box-sizing: border-box; color: rgb(112, 125, 107); font-family: &amp;quot;Public Sans&amp;quot;, -apple-system, BlinkMacSystemFont, &amp;quot;Segoe UI&amp;quot;, Oxygen, Ubuntu, Cantarell, &amp;quot;Fira Sans&amp;quot;, &amp;quot;Droid Sans&amp;quot;, &amp;quot;Helvetica Neue&amp;quot;, sans-serif; font-size: 15px; white-space-collapse: preserve-breaks; background-color: rgb(255, 255, 255);&quot;&gt;&lt;span style=&quot;box-sizing: border-box; letter-spacing: 4px; color: rgb(112, 125, 107); font-family: &amp;quot;Public Sans&amp;quot;, -apple-system, BlinkMacSystemFont, &amp;quot;Segoe UI&amp;quot;, Oxygen, Ubuntu, Cantarell, &amp;quot;Fira Sans&amp;quot;, &amp;quot;Droid Sans&amp;quot;, &amp;quot;Helvetica Neue&amp;quot;, sans-serif; font-size: 15px; white-space-collapse: preserve-breaks; background-color: rgb(255, 255, 255);&quot; class=&quot;json_nbsp&quot;&gt;&amp;nbsp;&amp;nbsp;&amp;nbsp;&amp;nbsp;&lt;/span&gt;&lt;span style=&quot;box-sizing: border-box; color: rgb(146, 39, 143); font-weight: bold; font-family: &amp;quot;Public Sans&amp;quot;, -apple-system, BlinkMacSystemFont, &amp;quot;Segoe UI&amp;quot;, Oxygen, Ubuntu, Cantarell, &amp;quot;Fira Sans&amp;quot;, &amp;quot;Droid Sans&amp;quot;, &amp;quot;Helvetica Neue&amp;quot;, sans-serif; font-size: 15px; white-space-collapse: preserve-breaks; background-color: rgb(255, 255, 255);&quot; class=&quot;json_key&quot;&gt;&quot;ruleRate&quot;&lt;/span&gt;&lt;span style=&quot;color: rgb(112, 125, 107); font-family: &amp;quot;Public Sans&amp;quot;, -apple-system, BlinkMacSystemFont, &amp;quot;Segoe UI&amp;quot;, Oxygen, Ubuntu, Cantarell, &amp;quot;Fira Sans&amp;quot;, &amp;quot;Droid Sans&amp;quot;, &amp;quot;Helvetica Neue&amp;quot;, sans-serif; font-size: 15px; white-space-collapse: preserve-breaks; background-color: rgb(255, 255, 255);&quot;&gt;:&lt;/span&gt;&lt;span style=&quot;box-sizing: border-box; letter-spacing: 4px; color: rgb(112, 125, 107); font-family: &amp;quot;Public Sans&amp;quot;, -apple-system, BlinkMacSystemFont, &amp;quot;Segoe UI&amp;quot;, Oxygen, Ubuntu, Cantarell, &amp;quot;Fira Sans&amp;quot;, &amp;quot;Droid Sans&amp;quot;, &amp;quot;Helvetica Neue&amp;quot;, sans-serif; font-size: 15px; white-space-collapse: preserve-breaks; background-color: rgb(255, 255, 255);&quot; class=&quot;json_nbsp&quot;&gt;&amp;nbsp;&lt;/span&gt;&lt;span style=&quot;box-sizing: border-box; color: rgb(58, 181, 74); font-weight: bold; font-family: &amp;quot;Public Sans&amp;quot;, -apple-system, BlinkMacSystemFont, &amp;quot;Segoe UI&amp;quot;, Oxygen, Ubuntu, Cantarell, &amp;quot;Fira Sans&amp;quot;, &amp;quot;Droid Sans&amp;quot;, &amp;quot;Helvetica Neue&amp;quot;, sans-serif; font-size: 15px; white-space-collapse: preserve-breaks; background-color: rgb(255, 255, 255);&quot; class=&quot;json_string&quot;&gt;&quot;100.0&quot;&lt;/span&gt;&lt;span style=&quot;color: rgb(112, 125, 107); font-family: &amp;quot;Public Sans&amp;quot;, -apple-system, BlinkMacSystemFont, &amp;quot;Segoe UI&amp;quot;, Oxygen, Ubuntu, Cantarell, &amp;quot;Fira Sans&amp;quot;, &amp;quot;Droid Sans&amp;quot;, &amp;quot;Helvetica Neue&amp;quot;, sans-serif; font-size: 15px; white-space-collapse: preserve-breaks; background-color: rgb(255, 255, 255);&quot;&gt;,&lt;/span&gt;&lt;br style=&quot;box-sizing: border-box; color: rgb(112, 125, 107); font-family: &amp;quot;Public Sans&amp;quot;, -apple-system, BlinkMacSystemFont, &amp;quot;Segoe UI&amp;quot;, Oxygen, Ubuntu, Cantarell, &amp;quot;Fira Sans&amp;quot;, &amp;quot;Droid Sans&amp;quot;, &amp;quot;Helvetica Neue&amp;quot;, sans-serif; font-size: 15px; white-space-collapse: preserve-breaks; background-color: rgb(255, 255, 255);&quot;&gt;&lt;span style=&quot;box-sizing: border-box; letter-spacing: 4px; color: rgb(112, 125, 107); font-family: &amp;quot;Public Sans&amp;quot;, -apple-system, BlinkMacSystemFont, &amp;quot;Segoe UI&amp;quot;, Oxygen, Ubuntu, Cantarell, &amp;quot;Fira Sans&amp;quot;, &amp;quot;Droid Sans&amp;quot;, &amp;quot;Helvetica Neue&amp;quot;, sans-serif; font-size: 15px; white-space-collapse: preserve-breaks; background-color: rgb(255, 255, 255);&quot; class=&quot;json_nbsp&quot;&gt;&amp;nbsp;&amp;nbsp;&amp;nbsp;&amp;nbsp;&lt;/span&gt;&lt;span style=&quot;box-sizing: border-box; color: rgb(146, 39, 143); font-weight: bold; font-family: &amp;quot;Public Sans&amp;quot;, -apple-system, BlinkMacSystemFont, &amp;quot;Segoe UI&amp;quot;, Oxygen, Ubuntu, Cantarell, &amp;quot;Fira Sans&amp;quot;, &amp;quot;Droid Sans&amp;quot;, &amp;quot;Helvetica Neue&amp;quot;, sans-serif; font-size: 15px; white-space-collapse: preserve-breaks; background-color: rgb(255, 255, 255);&quot; class=&quot;json_key&quot;&gt;&quot;source&quot;&lt;/span&gt;&lt;span style=&quot;color: rgb(112, 125, 107); font-family: &amp;quot;Public Sans&amp;quot;, -apple-system, BlinkMacSystemFont, &amp;quot;Segoe UI&amp;quot;, Oxygen, Ubuntu, Cantarell, &amp;quot;Fira Sans&amp;quot;, &amp;quot;Droid Sans&amp;quot;, &amp;quot;Helvetica Neue&amp;quot;, sans-serif; font-size: 15px; white-space-collapse: preserve-breaks; background-color: rgb(255, 255, 255);&quot;&gt;:&lt;/span&gt;&lt;span style=&quot;box-sizing: border-box; letter-spacing: 4px; color: rgb(112, 125, 107); font-family: &amp;quot;Public Sans&amp;quot;, -apple-system, BlinkMacSystemFont, &amp;quot;Segoe UI&amp;quot;, Oxygen, Ubuntu, Cantarell, &amp;quot;Fira Sans&amp;quot;, &amp;quot;Droid Sans&amp;quot;, &amp;quot;Helvetica Neue&amp;quot;, sans-serif; font-size: 15px; white-space-collapse: preserve-breaks; background-color: rgb(255, 255, 255);&quot; class=&quot;json_nbsp&quot;&gt;&amp;nbsp;&lt;/span&gt;&lt;span style=&quot;box-sizing: border-box; color: rgb(58, 181, 74); font-weight: bold; font-family: &amp;quot;Public Sans&amp;quot;, -apple-system, BlinkMacSystemFont, &amp;quot;Segoe UI&amp;quot;, Oxygen, Ubuntu, Cantarell, &amp;quot;Fira Sans&amp;quot;, &amp;quot;Droid Sans&amp;quot;, &amp;quot;Helvetica Neue&amp;quot;, sans-serif; font-size: 15px; white-space-collapse: preserve-breaks; background-color: rgb(255, 255, 255);&quot; class=&quot;json_string&quot;&gt;&quot;手动推送&quot;&lt;/span&gt;&lt;span style=&quot;color: rgb(112, 125, 107); font-family: &amp;quot;Public Sans&amp;quot;, -apple-system, BlinkMacSystemFont, &amp;quot;Segoe UI&amp;quot;, Oxygen, Ubuntu, Cantarell, &amp;quot;Fira Sans&amp;quot;, &amp;quot;Droid Sans&amp;quot;, &amp;quot;Helvetica Neue&amp;quot;, sans-serif; font-size: 15px; white-space-collapse: preserve-breaks; background-color: rgb(255, 255, 255);&quot;&gt;,&lt;/span&gt;&lt;br style=&quot;box-sizing: border-box; color: rgb(112, 125, 107); font-family: &amp;quot;Public Sans&amp;quot;, -apple-system, BlinkMacSystemFont, &amp;quot;Segoe UI&amp;quot;, Oxygen, Ubuntu, Cantarell, &amp;quot;Fira Sans&amp;quot;, &amp;quot;Droid Sans&amp;quot;, &amp;quot;Helvetica Neue&amp;quot;, sans-serif; font-size: 15px; white-space-collapse: preserve-breaks; background-color: rgb(255, 255, 255);&quot;&gt;&lt;span style=&quot;box-sizing: border-box; letter-spacing: 4px; color: rgb(112, 125, 107); font-family: &amp;quot;Public Sans&amp;quot;, -apple-system, BlinkMacSystemFont, &amp;quot;Segoe UI&amp;quot;, Oxygen, Ubuntu, Cantarell, &amp;quot;Fira Sans&amp;quot;, &amp;quot;Droid Sans&amp;quot;, &amp;quot;Helvetica Neue&amp;quot;, sans-serif; font-size: 15px; white-space-collapse: preserve-breaks; background-color: rgb(255, 255, 255);&quot; class=&quot;json_nbsp&quot;&gt;&amp;nbsp;&amp;nbsp;&amp;nbsp;&amp;nbsp;&lt;/span&gt;&lt;span style=&quot;box-sizing: border-box; color: rgb(146, 39, 143); font-weight: bold; font-family: &amp;quot;Public Sans&amp;quot;, -apple-system, BlinkMacSystemFont, &amp;quot;Segoe UI&amp;quot;, Oxygen, Ubuntu, Cantarell, &amp;quot;Fira Sans&amp;quot;, &amp;quot;Droid Sans&amp;quot;, &amp;quot;Helvetica Neue&amp;quot;, sans-serif; font-size: 15px; white-space-collapse: preserve-breaks; background-color: rgb(255, 255, 255);&quot; class=&quot;json_key&quot;&gt;&quot;stage&quot;&lt;/span&gt;&lt;span style=&quot;color: rgb(112, 125, 107); font-family: &amp;quot;Public Sans&amp;quot;, -apple-system, BlinkMacSystemFont, &amp;quot;Segoe UI&amp;quot;, Oxygen, Ubuntu, Cantarell, &amp;quot;Fira Sans&amp;quot;, &amp;quot;Droid Sans&amp;quot;, &amp;quot;Helvetica Neue&amp;quot;, sans-serif; font-size: 15px; white-space-collapse: preserve-breaks; background-color: rgb(255, 255, 255);&quot;&gt;:&lt;/span&gt;&lt;span style=&quot;box-sizing: border-box; letter-spacing: 4px; color: rgb(112, 125, 107); font-family: &amp;quot;Public Sans&amp;quot;, -apple-system, BlinkMacSystemFont, &amp;quot;Segoe UI&amp;quot;, Oxygen, Ubuntu, Cantarell, &amp;quot;Fira Sans&amp;quot;, &amp;quot;Droid Sans&amp;quot;, &amp;quot;Helvetica Neue&amp;quot;, sans-serif; font-size: 15px; white-space-collapse: preserve-breaks; background-color: rgb(255, 255, 255);&quot; class=&quot;json_nbsp&quot;&gt;&amp;nbsp;&lt;/span&gt;&lt;span style=&quot;box-sizing: border-box; color: rgb(37, 170, 226); font-weight: bold; font-family: &amp;quot;Public Sans&amp;quot;, -apple-system, BlinkMacSystemFont, &amp;quot;Segoe UI&amp;quot;, Oxygen, Ubuntu, Cantarell, &amp;quot;Fira Sans&amp;quot;, &amp;quot;Droid Sans&amp;quot;, &amp;quot;Helvetica Neue&amp;quot;, sans-serif; font-size: 15px; white-space-collapse: preserve-breaks; background-color: rgb(255, 255, 255);&quot; class=&quot;json_number&quot;&gt;2&lt;/span&gt;&lt;span style=&quot;color: rgb(112, 125, 107); font-family: &amp;quot;Public Sans&amp;quot;, -apple-system, BlinkMacSystemFont, &amp;quot;Segoe UI&amp;quot;, Oxygen, Ubuntu, Cantarell, &amp;quot;Fira Sans&amp;quot;, &amp;quot;Droid Sans&amp;quot;, &amp;quot;Helvetica Neue&amp;quot;, sans-serif; font-size: 15px; white-space-collapse: preserve-breaks; background-color: rgb(255, 255, 255);&quot;&gt;,&amp;nbsp; ###&lt;/span&gt;测试阶段（0：开发自测；1：冒烟测试；2：功能测试）&lt;span style=&quot;background-color: initial;&quot;&gt;&amp;nbsp;&amp;nbsp;&lt;/span&gt;&lt;div&gt;&lt;span style=&quot;box-sizing: border-box; letter-spacing: 4px; color: rgb(112, 125, 107); font-family: &amp;quot;Public Sans&amp;quot;, -apple-system, BlinkMacSystemFont, &amp;quot;Segoe UI&amp;quot;, Oxygen, Ubuntu, Cantarell, &amp;quot;Fira Sans&amp;quot;, &amp;quot;Droid Sans&amp;quot;, &amp;quot;Helvetica Neue&amp;quot;, sans-serif; font-size: 15px; white-space-collapse: preserve-breaks; background-color: rgb(255, 255, 255);&quot; class=&quot;json_nbsp&quot;&gt;&amp;nbsp;&amp;nbsp;&amp;nbsp;&amp;nbsp;&lt;/span&gt;&lt;span style=&quot;box-sizing: border-box; color: rgb(146, 39, 143); font-weight: bold; font-family: &amp;quot;Public Sans&amp;quot;, -apple-system, BlinkMacSystemFont, &amp;quot;Segoe UI&amp;quot;, Oxygen, Ubuntu, Cantarell, &amp;quot;Fira Sans&amp;quot;, &amp;quot;Droid Sans&amp;quot;, &amp;quot;Helvetica Neue&amp;quot;, sans-serif; font-size: 15px; white-space-collapse: preserve-breaks; background-color: rgb(255, 255, 255);&quot; class=&quot;json_key&quot;&gt;&quot;upDownRate&quot;&lt;/span&gt;&lt;span style=&quot;color: rgb(112, 125, 107); font-family: &amp;quot;Public Sans&amp;quot;, -apple-system, BlinkMacSystemFont, &amp;quot;Segoe UI&amp;quot;, Oxygen, Ubuntu, Cantarell, &amp;quot;Fira Sans&amp;quot;, &amp;quot;Droid Sans&amp;quot;, &amp;quot;Helvetica Neue&amp;quot;, sans-serif; font-size: 15px; white-space-collapse: preserve-breaks; background-color: rgb(255, 255, 255);&quot;&gt;:&lt;/span&gt;&lt;span style=&quot;box-sizing: border-box; letter-spacing: 4px; color: rgb(112, 125, 107); font-family: &amp;quot;Public Sans&amp;quot;, -apple-system, BlinkMacSystemFont, &amp;quot;Segoe UI&amp;quot;, Oxygen, Ubuntu, Cantarell, &amp;quot;Fira Sans&amp;quot;, &amp;quot;Droid Sans&amp;quot;, &amp;quot;Helvetica Neue&amp;quot;, sans-serif; font-size: 15px; white-space-collapse: preserve-breaks; background-color: rgb(255, 255, 255);&quot; class=&quot;json_nbsp&quot;&gt;&amp;nbsp;&lt;/span&gt;&lt;span style=&quot;box-sizing: border-box; color: rgb(58, 181, 74); font-weight: bold; font-family: &amp;quot;Public Sans&amp;quot;, -apple-system, BlinkMacSystemFont, &amp;quot;Segoe UI&amp;quot;, Oxygen, Ubuntu, Cantarell, &amp;quot;Fira Sans&amp;quot;, &amp;quot;Droid Sans&amp;quot;, &amp;quot;Helvetica Neue&amp;quot;, sans-serif; font-size: 15px; white-space-collapse: preserve-breaks; background-color: rgb(255, 255, 255);&quot; class=&quot;json_string&quot;&gt;&quot;100.0&quot;&lt;/span&gt;&lt;span style=&quot;color: rgb(112, 125, 107); font-family: &amp;quot;Public Sans&amp;quot;, -apple-system, BlinkMacSystemFont, &amp;quot;Segoe UI&amp;quot;, Oxygen, Ubuntu, Cantarell, &amp;quot;Fira Sans&amp;quot;, &amp;quot;Droid Sans&amp;quot;, &amp;quot;Helvetica Neue&amp;quot;, sans-serif; font-size: 15px; white-space-collapse: preserve-breaks; background-color: rgb(255, 255, 255);&quot;&gt;,&lt;/span&gt;&lt;br style=&quot;box-sizing: border-box; color: rgb(112, 125, 107); font-family: &amp;quot;Public Sans&amp;quot;, -apple-system, BlinkMacSystemFont, &amp;quot;Segoe UI&amp;quot;, Oxygen, Ubuntu, Cantarell, &amp;quot;Fira Sans&amp;quot;, &amp;quot;Droid Sans&amp;quot;, &amp;quot;Helvetica Neue&amp;quot;, sans-serif; font-size: 15px; white-space-collapse: preserve-breaks; background-color: rgb(255, 255, 255);&quot;&gt;&lt;span style=&quot;box-sizing: border-box; letter-spacing: 4px; color: rgb(112, 125, 107); font-family: &amp;quot;Public Sans&amp;quot;, -apple-system, BlinkMacSystemFont, &amp;quot;Segoe UI&amp;quot;, Oxygen, Ubuntu, Cantarell, &amp;quot;Fira Sans&amp;quot;, &amp;quot;Droid Sans&amp;quot;, &amp;quot;Helvetica Neue&amp;quot;, sans-serif; font-size: 15px; white-space-collapse: preserve-breaks; background-color: rgb(255, 255, 255);&quot; class=&quot;json_nbsp&quot;&gt;&amp;nbsp;&amp;nbsp;&amp;nbsp;&amp;nbsp;&lt;/span&gt;&lt;span style=&quot;box-sizing: border-box; color: rgb(146, 39, 143); font-weight: bold; font-family: &amp;quot;Public Sans&amp;quot;, -apple-system, BlinkMacSystemFont, &amp;quot;Segoe UI&amp;quot;, Oxygen, Ubuntu, Cantarell, &amp;quot;Fira Sans&amp;quot;, &amp;quot;Droid Sans&amp;quot;, &amp;quot;Helvetica Neue&amp;quot;, sans-serif; font-size: 15px; white-space-collapse: preserve-breaks; background-color: rgb(255, 255, 255);&quot; class=&quot;json_key&quot;&gt;&quot;url&quot;&lt;/span&gt;&lt;span style=&quot;color: rgb(112, 125, 107); font-family: &amp;quot;Public Sans&amp;quot;, -apple-system, BlinkMacSystemFont, &amp;quot;Segoe UI&amp;quot;, Oxygen, Ubuntu, Cantarell, &amp;quot;Fira Sans&amp;quot;, &amp;quot;Droid Sans&amp;quot;, &amp;quot;Helvetica Neue&amp;quot;, sans-serif; font-size: 15px; white-space-collapse: preserve-breaks; background-color: rgb(255, 255, 255);&quot;&gt;:&lt;/span&gt;&lt;span style=&quot;box-sizing: border-box; letter-spacing: 4px; color: rgb(112, 125, 107); font-family: &amp;quot;Public Sans&amp;quot;, -apple-system, BlinkMacSystemFont, &amp;quot;Segoe UI&amp;quot;, Oxygen, Ubuntu, Cantarell, &amp;quot;Fira Sans&amp;quot;, &amp;quot;Droid Sans&amp;quot;, &amp;quot;Helvetica Neue&amp;quot;, sans-serif; font-size: 15px; white-space-collapse: preserve-breaks; background-color: rgb(255, 255, 255);&quot; class=&quot;json_nbsp&quot;&gt;&amp;nbsp;&lt;/span&gt;&lt;span style=&quot;box-sizing: border-box; color: rgb(58, 181, 74); font-weight: bold; font-family: &amp;quot;Public Sans&amp;quot;, -apple-system, BlinkMacSystemFont, &amp;quot;Segoe UI&amp;quot;, Oxygen, Ubuntu, Cantarell, &amp;quot;Fira Sans&amp;quot;, &amp;quot;Droid Sans&amp;quot;, &amp;quot;Helvetica Neue&amp;quot;, sans-serif; font-size: 15px; white-space-collapse: preserve-breaks; background-color: rgb(255, 255, 255);&quot; class=&quot;json_string&quot;&gt;&quot;&lt;a style=&quot;box-sizing: border-box; color: rgb(97, 210, 214); text-decoration-line: none;&quot; class=&quot;json_link&quot; target=&quot;_blank&quot; href=&quot;http://arrow.tools.vipshop.com/#/modules-arrow/devselftest?domain=osp-checkout.api.vip.com&amp;amp;branch=master&amp;amp;type=2&quot;&gt;http://arrow.tools.vipshop.com/#/modules-arrow/devselftest?domain=osp-checkout.api.vip.com&amp;amp;branch=master&amp;amp;type=2&lt;/a&gt;&quot;&lt;/span&gt;&lt;span style=&quot;color: rgb(112, 125, 107); font-family: &amp;quot;Public Sans&amp;quot;, -apple-system, BlinkMacSystemFont, &amp;quot;Segoe UI&amp;quot;, Oxygen, Ubuntu, Cantarell, &amp;quot;Fira Sans&amp;quot;, &amp;quot;Droid Sans&amp;quot;, &amp;quot;Helvetica Neue&amp;quot;, sans-serif; font-size: 15px; white-space-collapse: preserve-breaks; background-color: rgb(255, 255, 255);&quot;&gt;,&lt;/span&gt;&lt;br style=&quot;box-sizing: border-box; color: rgb(112, 125, 107); font-family: &amp;quot;Public Sans&amp;quot;, -apple-system, BlinkMacSystemFont, &amp;quot;Segoe UI&amp;quot;, Oxygen, Ubuntu, Cantarell, &amp;quot;Fira Sans&amp;quot;, &amp;quot;Droid Sans&amp;quot;, &amp;quot;Helvetica Neue&amp;quot;, sans-serif; font-size: 15px; white-space-collapse: preserve-breaks; background-color: rgb(255, 255, 255);&quot;&gt;&lt;span style=&quot;box-sizing: border-box; letter-spacing: 4px; color: rgb(112, 125, 107); font-family: &amp;quot;Public Sans&amp;quot;, -apple-system, BlinkMacSystemFont, &amp;quot;Segoe UI&amp;quot;, Oxygen, Ubuntu, Cantarell, &amp;quot;Fira Sans&amp;quot;, &amp;quot;Droid Sans&amp;quot;, &amp;quot;Helvetica Neue&amp;quot;, sans-serif; font-size: 15px; white-space-collapse: preserve-breaks; background-color: rgb(255, 255, 255);&quot; class=&quot;json_nbsp&quot;&gt;&amp;nbsp;&amp;nbsp;&amp;nbsp;&amp;nbsp;&lt;/span&gt;&lt;span style=&quot;box-sizing: border-box; color: rgb(146, 39, 143); font-weight: bold; font-family: &amp;quot;Public Sans&amp;quot;, -apple-system, BlinkMacSystemFont, &amp;quot;Segoe UI&amp;quot;, Oxygen, Ubuntu, Cantarell, &amp;quot;Fira Sans&amp;quot;, &amp;quot;Droid Sans&amp;quot;, &amp;quot;Helvetica Neue&amp;quot;, sans-serif; font-size: 15px; white-space-collapse: preserve-breaks; background-color: rgb(255, 255, 255);&quot; class=&quot;json_key&quot;&gt;&quot;value&quot;&lt;/span&gt;&lt;span style=&quot;color: rgb(112, 125, 107); font-family: &amp;quot;Public Sans&amp;quot;, -apple-system, BlinkMacSystemFont, &amp;quot;Segoe UI&amp;quot;, Oxygen, Ubuntu, Cantarell, &amp;quot;Fira Sans&amp;quot;, &amp;quot;Droid Sans&amp;quot;, &amp;quot;Helvetica Neue&amp;quot;, sans-serif; font-size: 15px; white-space-collapse: preserve-breaks; background-color: rgb(255, 255, 255);&quot;&gt;:&lt;/span&gt;&lt;span style=&quot;box-sizing: border-box; letter-spacing: 4px; color: rgb(112, 125, 107); font-family: &amp;quot;Public Sans&amp;quot;, -apple-system, BlinkMacSystemFont, &amp;quot;Segoe UI&amp;quot;, Oxygen, Ubuntu, Cantarell, &amp;quot;Fira Sans&amp;quot;, &amp;quot;Droid Sans&amp;quot;, &amp;quot;Helvetica Neue&amp;quot;, sans-serif; font-size: 15px; white-space-collapse: preserve-breaks; background-color: rgb(255, 255, 255);&quot; class=&quot;json_nbsp&quot;&gt;&amp;nbsp;&lt;/span&gt;&lt;span style=&quot;box-sizing: border-box; color: rgb(58, 181, 74); font-weight: bold; font-family: &amp;quot;Public Sans&amp;quot;, -apple-system, BlinkMacSystemFont, &amp;quot;Segoe UI&amp;quot;, Oxygen, Ubuntu, Cantarell, &amp;quot;Fira Sans&amp;quot;, &amp;quot;Droid Sans&amp;quot;, &amp;quot;Helvetica Neue&amp;quot;, sans-serif; font-size: 15px; white-space-collapse: preserve-breaks; background-color: rgb(255, 255, 255);&quot; class=&quot;json_string&quot;&gt;&quot;100.0&quot;&lt;/span&gt;&lt;br style=&quot;box-sizing: border-box; color: rgb(112, 125, 107); font-family: &amp;quot;Public Sans&amp;quot;, -apple-system, BlinkMacSystemFont, &amp;quot;Segoe UI&amp;quot;, Oxygen, Ubuntu, Cantarell, &amp;quot;Fira Sans&amp;quot;, &amp;quot;Droid Sans&amp;quot;, &amp;quot;Helvetica Neue&amp;quot;, sans-serif; font-size: 15px; white-space-collapse: preserve-breaks; background-color: rgb(255, 255, 255);&quot;&gt;&lt;span style=&quot;color: rgb(112, 125, 107); font-family: &amp;quot;Public Sans&amp;quot;, -apple-system, BlinkMacSystemFont, &amp;quot;Segoe UI&amp;quot;, Oxygen, Ubuntu, Cantarell, &amp;quot;Fira Sans&amp;quot;, &amp;quot;Droid Sans&amp;quot;, &amp;quot;Helvetica Neue&amp;quot;, sans-serif; font-size: 15px; white-space-collapse: preserve-breaks; background-color: rgb(255, 255, 255);&quot;&gt;}&lt;/span&gt;&lt;/div&gt;" style="text;html=1;align=left;verticalAlign=top;whiteSpace=wrap;rounded=0;" parent="1" vertex="1">
          <mxGeometry x="900" y="160" width="1150" height="300" as="geometry" />
        </mxCell>
        <mxCell id="-3GkACIyukzAmPRYfmAO-11" value="1、获取覆盖率主动获取精准，覆盖率回调接口触发精准&lt;div&gt;回调入口：CoverageActionController#genReportCallback&lt;div&gt;&lt;br&gt;&lt;/div&gt;&lt;div&gt;精准接口：http://arrow.tools.vipshop.com/app/v1/prod/data/getArrowCoverage&lt;/div&gt;&lt;div&gt;对接wiki：https://wiki.corp.vipshop.com/pages/viewpage.action?pageId=2251396416&lt;/div&gt;&lt;div&gt;&lt;br&gt;&lt;/div&gt;&lt;div&gt;这个接口有分支限制：&quot;master&quot;, &quot;release&quot;, &quot;dev&quot;, &quot;develop&quot;&amp;nbsp; 这些分支无法获取精准数据&lt;/div&gt;&lt;div&gt;原因：分析耗费资源并且分析结果不准&lt;/div&gt;&lt;/div&gt;&lt;div&gt;已解决：这些分支已经回主动推送，并且接口也可以获取这些分支数据【2024-10】&lt;/div&gt;" style="text;html=1;align=left;verticalAlign=top;whiteSpace=wrap;rounded=0;fontSize=17;" parent="1" vertex="1">
          <mxGeometry x="900" y="-50" width="680" height="200" as="geometry" />
        </mxCell>
      </root>
    </mxGraphModel>
  </diagram>
</mxfile>
